# xmcd
#
# Track frame offsets:
#	150
#	20003
#	37540
#	62425
#	84500
#	104028
#	122333
#	138280
#	155035
#
# Disc length: 2427 seconds
#
# Revision: 2
# Processed by: cddbd v1.4PL0 Copyright (c) Steve Scherf et al.
# Submitted via: CDmax 1.9
#
DISCID=69097909
DTITLE=Clarence Carter - Between a Rock and a Hard Place
DYEAR=1990
DGENRE=Blues
TTITLE0=Things Ain't Like They Used To Be
TTITLE1=The Straw That Broke the Camel's Back
TTITLE2=I Ain't Leaving Girl
TTITLE3=Too Weak To Fight
TTITLE4=Pickin' 'Em Up, Layin' 'Em Down
TTITLE5=I'm Between a Rock and a Hard Place
TTITLE6=I've Got a Thing For You, Baby
TTITLE7=If You See My Lady
TTITLE8=Love Building
EXTD=LABEL =Ichiban Records\nID =ICH1068\nUPC =719011-1068-22\nCOPYRIGHT =1
EXTD=990
EXTT0=
EXTT1=
EXTT2=
EXTT3=
EXTT4=
EXTT5=
EXTT6=
EXTT7=
EXTT8=
PLAYORDER=
